ply
format ascii 1.0
comment python generated
element vertex 81
property float x
property float y
property float z
element face 128
property list uchar int vertex_indices
end_header
0 0 0
0 1 0
0 2 0
0 3 0
0 4 0
0 5 0
0 6 0
0 7 0
0 8 0
1 0 0
1 1 0
1 2 0
1 3 0
1 4 0
1 5 0
1 6 0
1 7 0
1 8 0
2 0 0
2 1 0
2 2 0
2 3 0
2 4 0
2 5 0
2 6 0
2 7 0
2 8 0
3 0 0
3 1 0
3 2 0
3 3 0
3 4 0
3 5 0
3 6 0
3 7 0
3 8 0
4 0 0
4 1 0
4 2 0
4 3 0
4 4 0
4 5 0
4 6 0
4 7 0
4 8 0
5 0 0
5 1 0
5 2 0
5 3 0
5 4 0
5 5 0
5 6 0
5 7 0
5 8 0
6 0 0
6 1 0
6 2 0
6 3 0
6 4 0
6 5 0
6 6 0
6 7 0
6 8 0
7 0 0
7 1 0
7 2 0
7 3 0
7 4 0
7 5 0
7 6 0
7 7 0
7 8 0
8 0 0
8 1 0
8 2 0
8 3 0
8 4 0
8 5 0
8 6 0
8 7 0
8 8 0
3 1 0 9
3 10 1 9
3 10 9 18
3 19 10 18
3 19 18 27
3 28 19 27
3 28 27 36
3 37 28 36
3 37 36 45
3 46 37 45
3 46 45 54
3 55 46 54
3 55 54 63
3 64 55 63
3 64 63 72
3 73 64 72
3 2 1 10
3 11 2 10
3 11 10 19
3 20 11 19
3 20 19 28
3 29 20 28
3 29 28 37
3 38 29 37
3 38 37 46
3 47 38 46
3 47 46 55
3 56 47 55
3 56 55 64
3 65 56 64
3 65 64 73
3 74 65 73
3 3 2 11
3 12 3 11
3 12 11 20
3 21 12 20
3 21 20 29
3 30 21 29
3 30 29 38
3 39 30 38
3 39 38 47
3 48 39 47
3 48 47 56
3 57 48 56
3 57 56 65
3 66 57 65
3 66 65 74
3 75 66 74
3 4 3 12
3 13 4 12
3 13 12 21
3 22 13 21
3 22 21 30
3 31 22 30
3 31 30 39
3 40 31 39
3 40 39 48
3 49 40 48
3 49 48 57
3 58 49 57
3 58 57 66
3 67 58 66
3 67 66 75
3 76 67 75
3 5 4 13
3 14 5 13
3 14 13 22
3 23 14 22
3 23 22 31
3 32 23 31
3 32 31 40
3 41 32 40
3 41 40 49
3 50 41 49
3 50 49 58
3 59 50 58
3 59 58 67
3 68 59 67
3 68 67 76
3 77 68 76
3 6 5 14
3 15 6 14
3 15 14 23
3 24 15 23
3 24 23 32
3 33 24 32
3 33 32 41
3 42 33 41
3 42 41 50
3 51 42 50
3 51 50 59
3 60 51 59
3 60 59 68
3 69 60 68
3 69 68 77
3 78 69 77
3 7 6 15
3 16 7 15
3 16 15 24
3 25 16 24
3 25 24 33
3 34 25 33
3 34 33 42
3 43 34 42
3 43 42 51
3 52 43 51
3 52 51 60
3 61 52 60
3 61 60 69
3 70 61 69
3 70 69 78
3 79 70 78
3 8 7 16
3 17 8 16
3 17 16 25
3 26 17 25
3 26 25 34
3 35 26 34
3 35 34 43
3 44 35 43
3 44 43 52
3 53 44 52
3 53 52 61
3 62 53 61
3 62 61 70
3 71 62 70
3 71 70 79
3 80 71 79

